HIERARCHY
ROOT Hips
{
	OFFSET 0.000000 88.474243 0.000000
	CHANNELS 6 Xposition Yposition Zposition Zrotation Yrotation Xrotation 
	JOINT Hips_Spine
	{
		OFFSET 0.000000 0.000000 0.000000
		CHANNELS 3 Zrotation Yrotation Xrotation
		JOINT Spine
		{
			OFFSET 0.005100 8.711998 -0.691000
			CHANNELS 3 Zrotation Yrotation Xrotation
			JOINT Spine1
			{
				OFFSET -0.009200 8.660301 -1.275000
				CHANNELS 3 Zrotation Yrotation Xrotation
				JOINT Spine2
				{
					OFFSET 0.006300 9.852501 -1.857000
					CHANNELS 3 Zrotation Yrotation Xrotation
					JOINT Spine2_Neck
					{
						OFFSET 0.000000 0.000000 0.000000
						CHANNELS 3 Zrotation Yrotation Xrotation
						JOINT Neck
						{
							OFFSET 0.016300 11.420799 -0.263300
							CHANNELS 3 Zrotation Yrotation Xrotation
							End Site #name: Head
							{
								OFFSET -0.019200 9.262405 2.362500
							}
						}
					}
					JOINT Spine2_LeftShoulder
					{
						OFFSET 0.000000 0.000000 0.000000
						CHANNELS 3 Zrotation Yrotation Xrotation
						JOINT LeftShoulder
						{
							OFFSET 5.616900 6.732201 -0.345700
							CHANNELS 3 Zrotation Yrotation Xrotation
							JOINT LeftArm
							{
								OFFSET 10.664888 -0.183372 -2.440700
								CHANNELS 3 Zrotation Yrotation Xrotation
								JOINT LeftForeArm
								{
									OFFSET 27.459126 0.000000 0.000000
									CHANNELS 3 Zrotation Yrotation Xrotation
									End Site #name: LeftHand
									{
										OFFSET 21.306858 0.000000 0.000000
									}
								}
							}
						}
					}
					JOINT Spine2_RightShoulder
					{
						OFFSET 0.000000 0.000000 0.000000
						CHANNELS 3 Zrotation Yrotation Xrotation
						JOINT RightShoulder
						{
							OFFSET -5.580300 6.737503 -0.344400
							CHANNELS 3 Zrotation Yrotation Xrotation
							JOINT RightArm
							{
								OFFSET -10.679335 -0.188484 -2.383900
								CHANNELS 3 Zrotation Yrotation Xrotation
								JOINT RightForeArm
								{
									OFFSET -27.503529 0.000000 0.000000
									CHANNELS 3 Zrotation Yrotation Xrotation
									End Site #name: RightHand
									{
										OFFSET -21.306808 0.000000 0.000000
									}
								}
							}
						}
					}
				}
			}
		}
	}
	JOINT Hips_LeftUpLeg
	{
		OFFSET 0.000000 0.000000 0.000000
		CHANNELS 3 Zrotation Yrotation Xrotation
		JOINT LeftUpLeg
		{
			OFFSET 6.857700 -6.739601 0.312100
			CHANNELS 3 Zrotation Yrotation Xrotation
			JOINT LeftLeg
			{
				OFFSET -0.367590 -34.731552 -4.572400
				CHANNELS 3 Zrotation Yrotation Xrotation
				End Site #name: LeftFoot
				{
					OFFSET 0.367590 -34.656704 -6.067400
				}
			}
		}
	}
	JOINT Hips_RightUpLeg
	{
		OFFSET 0.000000 0.000000 0.000000
		CHANNELS 3 Zrotation Yrotation Xrotation
		JOINT RightUpLeg
		{
			OFFSET -6.876100 -6.733299 0.301000
			CHANNELS 3 Zrotation Yrotation Xrotation
			JOINT RightLeg
			{
				OFFSET 0.347353 -34.795158 -4.515900
				CHANNELS 3 Zrotation Yrotation Xrotation
				End Site #name: RightFoot
				{
					OFFSET -0.347353 -34.589367 -6.070300
				}
			}
		}
	}
}
MOTION
Frames: 9
Frame Time: 0.041667
0.016582 0.009655 -0.096665 -178.454166 53.334797 -175.916018 -0.000000 -0.000000 0.000000 -3.043239 3.744962 -2.226107 2.125870 -0.249314 1.421410 0.000000 0.000000 0.000000 1.953399 -0.971854 -0.990233 -1.355394 -6.426144 -1.587282 1.199760 0.124544 -0.372406 -6.568731 -4.362182 1.220820 -77.949590 -4.426061 8.655885 0.091007 -19.516699 3.033305 1.201078 -0.641091 0.343111 18.529656 12.403468 4.095009 49.465497 16.553465 -12.006542 -7.020700 75.574574 -1.110274 0.000000 -0.000000 0.000000 -6.350413 18.884047 -13.676103 -5.440424 -32.252405 -0.197353 0.000000 -0.000000 -0.000000 -8.218457 -25.276793 -8.208231 -14.012459 -11.612827 15.204164 
-0.071179 -0.127291 -0.145633 178.326514 67.605761 -177.127060 -0.000000 -0.000000 0.000000 -4.587151 4.211595 0.234111 2.768067 -0.359808 1.361478 0.000000 0.000000 0.000000 2.504111 -0.551991 0.127893 -0.511407 -12.031568 -0.795504 1.794461 -0.174508 -0.660754 -5.906756 -5.350335 1.416352 -83.071304 -14.221151 5.217205 -1.400816 -15.693449 2.082931 2.613193 -0.966844 1.064422 24.228419 14.636976 4.660557 48.538118 17.709859 -10.680084 -5.487045 65.489004 -0.156199 0.000000 -0.000000 -0.000000 -5.349855 18.681352 -12.689535 -3.578594 -29.981692 -4.215925 0.000000 -0.000000 -0.000000 -8.825935 -26.732135 -8.482960 -11.617537 -9.656892 15.645705 
0.006098 -0.153716 -0.119692 176.892488 61.185596 -178.024663 -0.000000 -0.000000 0.000000 -4.482454 0.987126 0.425226 3.167695 -0.586703 1.145194 0.000000 0.000000 0.000000 3.111520 -0.743677 0.454446 -0.536577 -19.814010 -0.428987 2.016378 -0.267759 -0.947051 -5.062132 -4.321877 0.647071 -82.660197 -14.979791 -0.957745 -1.176312 -9.484071 2.334779 3.042913 -1.219164 0.830117 25.718662 16.446066 5.497939 49.204903 19.503332 -6.081177 -4.465388 66.770458 1.194817 0.000000 -0.000000 -0.000000 -4.351367 19.355773 -12.023399 -3.157973 -29.717086 -4.783383 0.000000 -0.000000 -0.000000 -9.021748 -29.147697 -7.672882 -11.694229 -11.107982 16.801618 
0.140007 -0.183110 -0.112098 177.892915 52.673352 -177.653893 -0.000000 -0.000000 0.000000 -3.996457 -0.929782 1.530347 2.838075 -0.960773 0.931653 0.000000 0.000000 0.000000 3.027361 -1.161308 0.760264 -1.333967 -24.013190 -0.245847 1.875549 -0.650591 -1.066129 -4.620456 -3.562793 0.107976 -82.707430 -16.504902 -0.923451 -0.916145 -6.307809 2.373128 2.775879 -1.869736 0.811683 24.928427 16.805798 5.701195 49.898588 19.461109 -3.730152 -4.998332 69.941888 0.489904 0.000000 0.000000 -0.000000 -3.501932 19.603262 -11.018449 -2.680906 -29.866679 -5.553184 -0.000000 -0.000000 -0.000000 -9.327045 -33.865297 -7.108053 -12.431967 -12.172668 17.505455 
0.275653 -0.195247 -0.148173 177.794507 44.672788 -177.945820 -0.000000 -0.000000 0.000000 -2.712097 -1.745538 2.277784 2.175484 -1.266892 0.745765 0.000000 0.000000 0.000000 2.568147 -1.454461 1.227444 -1.022144 -25.878432 -0.329224 1.418957 -1.072986 -0.985587 -4.124103 -1.820272 -1.063533 -82.032808 -18.249375 -0.207511 -0.082237 -5.644801 3.259327 2.058882 -2.328257 0.813209 23.473941 16.460233 5.605210 50.822227 19.775328 -1.165913 -6.258023 73.427115 -0.925797 0.000000 0.000000 -0.000000 -3.049600 19.686811 -10.575385 -2.552940 -30.233239 -5.812266 -0.000000 -0.000000 -0.000000 -9.447602 -37.791339 -6.750281 -13.540596 -12.844989 17.995913 
0.426926 -0.182145 -0.204876 177.101193 38.247152 -178.314090 -0.000000 -0.000000 0.000000 -1.304987 -1.769502 2.890458 1.357091 -1.488369 0.718059 0.000000 0.000000 0.000000 1.953955 -1.617236 1.659133 -0.705230 -26.077213 -0.373313 0.828005 -1.335412 -0.795963 -3.960209 -0.888010 -1.481480 -81.253730 -19.243839 1.105044 1.675383 -6.301202 5.081088 1.282796 -2.556525 0.825489 22.001526 15.945430 5.775351 51.521915 20.116278 0.570135 -6.997710 75.394613 -1.919581 0.000000 0.000000 -0.000000 -3.039384 19.434652 -10.804719 -2.596775 -30.027512 -5.691105 -0.000000 -0.000000 -0.000000 -9.309536 -40.361543 -6.958987 -14.646708 -13.471973 18.518961 
0.586181 -0.153853 -0.275491 176.305095 34.005914 -178.513545 -0.000000 -0.000000 0.000000 -0.126128 -1.260014 3.383942 0.692008 -1.577009 0.908790 0.000000 0.000000 0.000000 1.364716 -1.675078 2.078457 -0.540375 -25.579776 -0.337551 0.365871 -1.422396 -0.594665 -3.963948 -0.384989 -1.505385 -80.666461 -19.815803 2.463160 3.144169 -8.034127 6.624493 0.649400 -2.591324 0.797171 20.747314 15.541627 6.001378 52.034577 19.591547 1.517330 -6.728046 75.338963 -1.860420 0.000000 0.000000 -0.000000 -3.148231 18.941232 -11.265649 -2.639655 -29.492829 -5.679149 -0.000000 -0.000000 -0.000000 -9.263905 -41.985213 -7.345368 -15.509879 -14.383064 18.785379 
0.747443 -0.121829 -0.348084 175.623411 31.272371 -178.556991 -0.000000 -0.000000 0.000000 0.555387 -0.804108 3.165021 0.244829 -1.600167 1.300249 0.000000 0.000000 0.000000 0.913574 -1.656451 2.491094 -0.421089 -25.110732 -0.293522 0.044935 -1.448597 -0.337284 -3.938839 -0.393264 -1.266925 -80.158348 -20.214918 3.474955 4.152370 -10.305920 7.525692 0.187446 -2.579522 0.838219 19.717652 15.624438 5.761264 52.424697 18.792874 2.088914 -6.193747 74.108970 -1.401386 0.000000 0.000000 -0.000000 -3.240049 18.364839 -11.641308 -2.639129 -28.972473 -5.831541 -0.000000 -0.000000 -0.000000 -9.302276 -42.872567 -7.803582 -15.696237 -14.938267 18.756728 
0.906593 -0.088882 -0.415740 175.131145 28.939683 -178.566847 -0.000000 -0.000000 0.000000 0.648080 -0.340636 2.971516 0.006704 -1.572822 1.657723 0.000000 0.000000 0.000000 0.637671 -1.607893 2.785152 -0.293149 -24.885025 -0.323295 -0.134322 -1.426187 -0.095634 -3.805479 -0.607979 -0.946435 -79.624916 -20.634081 4.138787 4.712356 -13.294330 7.792801 -0.051565 -2.566169 0.920651 18.924614 16.031925 5.408099 52.649990 18.019293 2.255045 -5.707554 72.134036 -0.943356 0.000000 0.000000 -0.000000 -3.253905 17.849218 -11.766240 -2.605531 -28.529817 -6.026184 -0.000000 -0.000000 -0.000000 -9.371946 -43.099978 -8.217311 -15.098492 -14.721654 18.538755 
